<?xml version="1.0" encoding="UTF-8"?>
<svg width="128" height="128" viewBox="0 0 128 128" xmlns="http://www.w3.org/2000/svg">
  <defs>
    <linearGradient id="cpeGradient" x1="0%" y1="0%" x2="100%" y2="100%">
      <stop offset="0%" style="stop-color:#F57C00;stop-opacity:1" />
      <stop offset="100%" style="stop-color:#E65100;stop-opacity:1" />
    </linearGradient>
    <linearGradient id="assetGradient" x1="0%" y1="0%" x2="100%" y2="100%">
      <stop offset="0%" style="stop-color:#FF9800;stop-opacity:1" />
      <stop offset="100%" style="stop-color:#F57C00;stop-opacity:1" />
    </linearGradient>
  </defs>
  
  <!-- Background -->
  <rect width="128" height="128" rx="16" fill="url(#cpeGradient)"/>
  
  <!-- Server/Computer icons representing different platforms -->
  <rect x="15" y="25" width="25" height="18" rx="2" fill="url(#assetGradient)" stroke="#FFFFFF" stroke-width="1.5"/>
  <rect x="15" y="45" width="25" height="2" fill="#FFFFFF"/>
  
  <rect x="52" y="20" width="25" height="20" rx="2" fill="url(#assetGradient)" stroke="#FFFFFF" stroke-width="1.5"/>
  <circle cx="64.5" cy="30" r="8" fill="#FFFFFF" opacity="0.9"/>
  <rect x="60" y="32" width="9" height="6" fill="url(#cpeGradient)"/>
  
  <rect x="88" y="25" width="25" height="18" rx="2" fill="url(#assetGradient)" stroke="#FFFFFF" stroke-width="1.5"/>
  <rect x="88" y="45" width="25" height="2" fill="#FFFFFF"/>
  
  <!-- CPE matching connections -->
  <path d="M27 50 Q40 65 64 70" stroke="#FFFFFF" stroke-width="2" fill="none" opacity="0.8"/>
  <path d="M64 70 Q88 65 101 50" stroke="#FFFFFF" stroke-width="2" fill="none" opacity="0.8"/>
  <path d="M64 45 L64 70" stroke="#FFFFFF" stroke-width="2" opacity="0.8"/>
  
  <!-- Central CPE hub -->
  <circle cx="64" cy="75" r="12" fill="#FFFFFF"/>
  <text x="64" y="80" text-anchor="middle" font-family="Arial, sans-serif" font-size="10" font-weight="bold" fill="#E65100">CPE</text>
  
  <!-- Platform type indicators -->
  <rect x="20" y="95" width="15" height="10" rx="1" fill="#FFCC80"/>
  <text x="27.5" y="102" text-anchor="middle" font-family="Arial, sans-serif" font-size="6" fill="#E65100">OS</text>
  
  <rect x="56" y="95" width="15" height="10" rx="1" fill="#FFCC80"/>
  <text x="63.5" y="102" text-anchor="middle" font-family="Arial, sans-serif" font-size="6" fill="#E65100">APP</text>
  
  <rect x="92" y="95" width="15" height="10" rx="1" fill="#FFCC80"/>
  <text x="99.5" y="102" text-anchor="middle" font-family="Arial, sans-serif" font-size="6" fill="#E65100">HW</text>
  
  <!-- Matching confidence indicators -->
  <circle cx="35" cy="60" r="2" fill="#4CAF50"/>
  <circle cx="93" cy="60" r="2" fill="#FFC107"/>
  <circle cx="64" cy="55" r="2" fill="#4CAF50"/>
</svg>